<svg width="26" height="15" viewBox="0 0 26 15" fill="none" xmlns="http://www.w3.org/2000/svg">
<path d="M25.6667 2.44444C25.6667 3.78889 24.6167 4.88889 23.3333 4.88889C23.1233 4.88889 22.925 4.86445 22.7383 4.80333L18.585 9.14222C18.6433 9.33778 18.6667 9.55778 18.6667 9.77778C18.6667 11.1222 17.6167 12.2222 16.3333 12.2222C15.05 12.2222 14 11.1222 14 9.77778C14 9.55778 14.0233 9.33778 14.0817 9.14222L11.1067 6.02556C10.92 6.08667 10.71 6.11111 10.5 6.11111C10.29 6.11111 10.08 6.08667 9.89333 6.02556L4.585 11.5989C4.64333 11.7944 4.66667 12.0022 4.66667 12.2222C4.66667 13.5667 3.61667 14.6667 2.33333 14.6667C1.05 14.6667 0 13.5667 0 12.2222C0 10.8778 1.05 9.77778 2.33333 9.77778C2.54333 9.77778 2.74167 9.80222 2.92833 9.86333L8.24833 4.30222C8.19 4.10667 8.16667 3.88667 8.16667 3.66667C8.16667 2.32222 9.21667 1.22222 10.5 1.22222C11.7833 1.22222 12.8333 2.32222 12.8333 3.66667C12.8333 3.88667 12.81 4.10667 12.7517 4.30222L15.7267 7.41889C15.9133 7.35778 16.1233 7.33333 16.3333 7.33333C16.5433 7.33333 16.7533 7.35778 16.94 7.41889L21.0817 3.06778C21.0233 2.87222 21 2.66444 21 2.44444C21 1.1 22.05 0 23.3333 0C24.6167 0 25.6667 1.1 25.6667 2.44444Z" fill="white"/>
</svg>
